<svg width="41" height="37" viewBox="0 0 41 37" fill="none" xmlns="http://www.w3.org/2000/svg">
<path d="M40.231 35.4402H33.642V14.567H26.1392V10.0942C30.7082 10.0461 33.8825 7.49702 34.5077 4.22656H40.231V35.4402Z" fill="white"/>
<path d="M24.9713 0.619385V31.1597C24.9713 32.7468 25.0675 34.4782 25.1637 35.4401H19.0556C18.9594 34.9592 18.8152 33.8049 18.8152 32.6987C17.7571 34.5744 15.3523 36.0173 12.178 36.0173C5.44475 36.0173 0.635254 30.7268 0.635254 23.5607C0.635254 16.635 5.30047 11.2003 11.9857 11.2003C16.0737 11.2003 17.9975 12.8836 18.6709 14.1341V0.619385H24.9713ZM7.07998 23.5607C7.07998 27.793 9.58092 30.294 12.9476 30.294C16.218 30.294 18.7671 27.793 18.7671 23.5126C18.7671 19.2802 16.218 16.9236 12.9476 16.9236C9.67711 16.9236 7.07998 19.3283 7.07998 23.5607Z" fill="white"/>
</svg>
