<svg width="1963" height="592" viewBox="0 0 1963 592" fill="none" xmlns="http://www.w3.org/2000/svg">
<path d="M1759.8 408.235H1887.16C1886 379.868 1867.48 352.081 1823.48 352.081C1783.54 352.081 1761.54 382.184 1759.8 408.235ZM1894.69 482.337L1958.95 501.441C1944.47 550.649 1899.32 591.752 1829.27 591.752C1751.12 591.752 1682.23 535.597 1682.23 439.497C1682.23 348.607 1749.38 289.558 1822.32 289.558C1910.32 289.558 1963 345.712 1963 437.181C1963 448.181 1961.84 459.759 1961.84 460.917H1758.06C1759.8 498.546 1791.64 525.755 1829.85 525.755C1865.74 525.755 1885.43 507.809 1894.69 482.337Z" fill="white"/>
<path d="M1488.88 419.235V583.068H1411.88V298.241H1486.56V333.555C1503.93 304.03 1538.08 290.715 1568.77 290.715C1639.39 290.715 1671.81 341.081 1671.81 403.604V583.068H1594.82V416.919C1594.82 385.079 1579.19 360.185 1542.14 360.185C1508.56 360.185 1488.88 386.236 1488.88 419.235Z" fill="white"/>
<path d="M1248.06 521.703C1285.69 521.703 1320.42 494.494 1320.42 440.655C1320.42 386.815 1285.69 359.606 1248.06 359.606C1210.43 359.606 1175.69 386.815 1175.69 440.655C1175.69 493.915 1210.43 521.703 1248.06 521.703ZM1248.06 289.558C1333.16 289.558 1397.42 352.659 1397.42 440.655C1397.42 528.071 1333.16 591.752 1248.06 591.752C1162.96 591.752 1098.7 528.071 1098.7 440.655C1098.7 352.659 1162.96 289.558 1248.06 289.558Z" fill="white"/>
<path d="M1046.54 213.143V298.244H1103.85V366.556H1046.54V485.812C1046.54 510.706 1058.12 518.811 1080.12 518.811C1089.38 518.811 1099.8 517.653 1103.85 516.495V580.176C1096.91 583.07 1083.01 587.123 1060.43 587.123C1004.86 587.123 970.123 554.125 970.123 499.128V366.556H918.599V298.244H933.072C963.176 298.244 977.07 278.561 977.07 253.088V213.143H1046.54Z" fill="white"/>
<path d="M911.115 227.615C893.747 227.615 871.169 235.141 871.169 266.982V298.243H935.429V364.24H871.169V583.07H793.595V364.24H746.124V298.243H793.595V265.824C793.595 201.564 834.119 159.882 897.221 159.882C913.43 159.882 929.061 162.777 935.429 165.671V230.51C931.377 229.352 923.851 227.615 911.115 227.615Z" fill="white"/>
<path d="M495.996 505.493C495.996 454.549 533.625 426.182 581.096 419.235L651.145 408.814C667.355 406.499 672.565 398.394 672.565 388.552C672.565 368.29 656.934 351.502 624.515 351.502C590.938 351.502 572.413 372.922 570.097 397.815L501.785 383.342C506.416 338.765 547.519 289.558 623.936 289.558C714.247 289.558 747.824 340.502 747.824 397.815V537.913C747.824 552.964 749.561 573.226 751.298 583.068H680.67C678.933 575.542 677.775 559.911 677.775 548.912C663.302 571.49 636.093 591.173 593.833 591.173C533.046 591.173 495.996 550.07 495.996 505.493ZM610.042 533.86C642.462 533.86 672.565 518.229 672.565 467.864V455.128L608.305 464.969C588.622 467.864 572.992 478.863 572.992 500.862C572.992 517.65 585.149 533.86 610.042 533.86Z" fill="white"/>
<path d="M503.819 297.084V374.659C495.135 372.922 487.609 372.343 480.662 372.343C441.296 372.343 407.14 391.447 407.14 452.812V583.069H330.144V298.242H404.824V340.503C422.192 302.873 461.558 295.926 485.873 295.926C492.241 295.926 498.03 296.505 503.819 297.084Z" fill="white"/>
<path d="M292.931 163.935V531.547C292.931 550.651 294.089 571.492 295.247 583.07H221.725C220.567 577.281 218.83 563.387 218.83 550.072C206.094 572.65 177.148 590.017 138.94 590.017C57.8916 590.017 0 526.336 0 440.078C0 356.714 56.1548 291.297 136.624 291.297C185.832 291.297 208.989 311.559 217.093 326.61V163.935H292.931ZM77.5747 440.078C77.5747 491.023 107.678 521.126 148.202 521.126C187.569 521.126 218.251 491.023 218.251 439.499C218.251 388.554 187.569 360.188 148.202 360.188C108.836 360.188 77.5747 389.133 77.5747 440.078Z" fill="white"/>
<path d="M468.345 63.1018H172.519V0H468.345V63.1018Z" fill="white"/>
</svg>
